<svg width="32" height="51" fill="none" xmlns="http://www.w3.org/2000/svg"><path fill-rule="evenodd" clip-rule="evenodd" d="M16 51c12-14 16-28.5 16-34.5C31.5 5.5 23 0 16 0v9a7 7 0 110 14v28z" fill="#A791B8"/><path fill-rule="evenodd" clip-rule="evenodd" d="M16 51C4 37 0 22.5 0 16.5.5 5.5 9 0 16 0v9a7 7 0 100 14v28z" fill="#683D83"/><path fill-rule="evenodd" clip-rule="evenodd" d="M16 32c8.837 0 16-7.163 16-16S24.837 0 16 0 0 7.163 0 16s7.163 16 16 16zm0-9a7 7 0 100-14 7 7 0 000 14z" fill="#683D83"/></svg>