<svg width="100" height="33" fill="none" xmlns="http://www.w3.org/2000/svg"><path d="M32.54 18.44v4.64h-3.3V9.41h5.46c1.05 0 1.97.2 2.77.58.81.38 1.43.93 1.87 1.64.45.71.67 1.52.67 2.42 0 1.33-.48 2.4-1.44 3.2-.95.8-2.26 1.2-3.92 1.2h-2.1zm0-2.54h2.16c.64 0 1.13-.16 1.46-.48.34-.32.5-.77.5-1.35a2.2 2.2 0 00-.51-1.53 1.83 1.83 0 00-1.41-.59h-2.2v3.95zM46.28 18.26H44.5v4.82h-3.3V9.41h5.38a6 6 0 013.8 1.08 3.66 3.66 0 011.38 3.05c0 .95-.2 1.74-.59 2.37a4.07 4.07 0 01-1.8 1.52l2.86 5.51v.14h-3.54l-2.41-4.82zM44.5 15.7h2.08c.63 0 1.1-.16 1.4-.49.33-.33.49-.79.49-1.38a1.9 1.9 0 00-.48-1.38c-.32-.34-.79-.5-1.41-.5H44.5v3.75zM57.07 23.08h-3.29V9.41h3.29v13.67zM64.27 9.4l3.05 9.52 3.04-9.51h4.34v13.67h-3.3V19.9l.31-6.54-3.3 9.73h-2.18l-3.32-9.74.32 6.55v3.2h-3.3V9.4h4.34zM87.06 17.65h-9.9v-2.48h9.9v2.48zM100 9.4v8.96c0 1.01-.22 1.9-.65 2.64a4.2 4.2 0 01-1.86 1.69c-.8.39-1.76.58-2.86.58a5.66 5.66 0 01-3.94-1.3 4.62 4.62 0 01-1.46-3.55V9.41h3.31v9.08c.04 1.5.73 2.25 2.09 2.25.68 0 1.2-.2 1.55-.57.35-.37.52-.98.52-1.83V9.41h3.3z" fill="#000"/><path fill-rule="evenodd" clip-rule="evenodd" d="M10.26 32.7c7.7-8.98 10.26-18.27 10.26-22.12C20.2 3.53 14.75 0 10.26 0v5.77a4.49 4.49 0 010 8.98V32.7z" fill="#A6A6A6"/><path fill-rule="evenodd" clip-rule="evenodd" d="M10.26 32.7C2.56 23.72 0 14.43 0 10.58.32 3.53 5.77 0 10.26 0v5.77a4.49 4.49 0 100 8.98V32.7z" fill="#000"/><path fill-rule="evenodd" clip-rule="evenodd" d="M10.26 20.52a10.26 10.26 0 100-20.52 10.26 10.26 0 000 20.52zm0-5.77a4.49 4.49 0 100-8.98 4.49 4.49 0 000 8.98z" fill="#000"/></svg>