<svg width="158" height="51" fill="none" xmlns="http://www.w3.org/2000/svg"><path d="M50.75 28.76V36h-5.14V14.67h8.51c1.63 0 3.07.3 4.32.91a6.67 6.67 0 012.92 2.56 6.93 6.93 0 011.04 3.77c0 2.08-.75 3.74-2.24 5-1.49 1.23-3.53 1.85-6.13 1.85h-3.28zm0-3.97h3.37c1 0 1.76-.25 2.27-.74.53-.5.8-1.2.8-2.11 0-1-.27-1.8-.81-2.39-.54-.6-1.27-.9-2.2-.9h-3.43v6.14zm21.43 3.68h-2.79V36h-5.14V14.67h8.4c2.53 0 4.5.56 5.93 1.69a5.71 5.71 0 012.14 4.76 6.9 6.9 0 01-.91 3.69A6.35 6.35 0 0177 27.18l4.45 8.6V36h-5.5l-3.77-7.53zm-2.79-3.97h3.26c.97 0 1.7-.25 2.2-.76.5-.52.74-1.24.74-2.15 0-.92-.25-1.64-.75-2.16-.5-.52-1.23-.79-2.2-.79H69.4v5.86zM89 36h-5.13V14.67H89V36zm11.23-21.33l4.76 14.84 4.75-14.84h6.76V36h-5.15v-4.98l.5-10.2L106.69 36h-3.4l-5.17-15.19.5 10.21V36h-5.14V14.67h6.75zm35.55 12.86h-15.45v-3.86h15.45v3.86zm20.18-12.86v13.96c0 1.58-.34 2.96-1.01 4.12a6.56 6.56 0 01-2.9 2.63c-1.26.61-2.75.91-4.47.91-2.6 0-4.65-.67-6.14-2.02-1.5-1.35-2.25-3.2-2.28-5.54V14.67h5.17v14.17c.05 2.33 1.14 3.5 3.25 3.5 1.06 0 1.87-.3 2.42-.88.54-.59.82-1.54.82-2.86V14.67h5.14z" fill="#683D83"/><path fill-rule="evenodd" clip-rule="evenodd" d="M16 51c12-14 16-28.5 16-34.5C31.5 5.5 23 0 16 0v9a7 7 0 110 14v28z" fill="#A791B8"/><path fill-rule="evenodd" clip-rule="evenodd" d="M16 51C4 37 0 22.5 0 16.5.5 5.5 9 0 16 0v9a7 7 0 100 14v28z" fill="#683D83"/><path fill-rule="evenodd" clip-rule="evenodd" d="M16 32a16 16 0 100-32 16 16 0 000 32zm0-9a7 7 0 100-14 7 7 0 000 14z" fill="#683D83"/></svg>